<?xml version="1.0" encoding="UTF-8" standalone="no"?>
<!-- Created with Inkscape (http://www.inkscape.org/) -->

<svg
   width="600mm"
   height="300mm"
   viewBox="0 0 600 300"
   version="1.1"
   id="svg1"
   inkscape:version="1.4 (86a8ad7, 2024-10-11)"
   sodipodi:docname="back.svg"
   xmlns:inkscape="http://www.inkscape.org/namespaces/inkscape"
   xmlns:sodipodi="http://sodipodi.sourceforge.net/DTD/sodipodi-0.dtd"
   xmlns="http://www.w3.org/2000/svg"
   xmlns:svg="http://www.w3.org/2000/svg">
  <sodipodi:namedview
     id="namedview1"
     pagecolor="#505050"
     bordercolor="#eeeeee"
     borderopacity="1"
     inkscape:showpageshadow="0"
     inkscape:pageopacity="0"
     inkscape:pagecheckerboard="0"
     inkscape:deskcolor="#505050"
     inkscape:document-units="mm"
     inkscape:zoom="5.6568543"
     inkscape:cx="2304.9029"
     inkscape:cy="1027.3378"
     inkscape:window-width="2560"
     inkscape:window-height="1369"
     inkscape:window-x="-8"
     inkscape:window-y="-8"
     inkscape:window-maximized="1"
     inkscape:current-layer="layer1" />
  <defs
     id="defs1" />
  <g
     inkscape:label="Layer 1"
     inkscape:groupmode="layer"
     id="layer1">
    <path
       style="fill:none;fill-opacity:1;stroke:#ff0000;stroke-width:0.0999976;stroke-dasharray:none;stroke-opacity:1"
       d="m 0.02513633,259.98707 8.96286457,-0.0245 v 20.00867 H 0"
       id="path8"
       sodipodi:nodetypes="cccc" />
    <path
       style="fill:none;fill-opacity:1;stroke:#ff0000;stroke-width:0.1;stroke-dasharray:none;stroke-opacity:1"
       d="m 8.988035,20.551296 0.02393,-11.5513115 20.943241,3.1e-5 -0.0502,-8.94995254"
       id="path7"
       sodipodi:nodetypes="cccc" />
    <path
       style="fill:none;fill-opacity:1;stroke:#ff0000;stroke-width:0.0999976;stroke-dasharray:none;stroke-opacity:1"
       d="m 0.05013513,40.418241 8.93746577,0.0499 v -20.00886"
       id="path6"
       sodipodi:nodetypes="ccc" />
    <path
       style="fill:none;fill-opacity:1;stroke:#ff0000;stroke-width:0.0999976;stroke-dasharray:none;stroke-opacity:1"
       d="m 0.05013513,80.335385 8.93746577,0.0499 V 60.376431 l -8.93746577,0.0503"
       id="path5" />
    <path
       style="fill:none;fill-opacity:1;stroke:#ff0000;stroke-width:0.0999976;stroke-dasharray:none;stroke-opacity:1"
       d="m 0.05013513,120.25243 8.93746577,0.0499 v -20.00887 l -8.93746577,0.0504"
       id="path4" />
    <path
       style="fill:none;fill-opacity:1;stroke:#ff0000;stroke-width:0.0999976;stroke-dasharray:none;stroke-opacity:1"
       d="m 0.05013513,160.16937 8.93746577,0.05 v -20.00886 l -8.93746577,0.0504"
       id="path3" />
    <path
       style="fill:none;fill-opacity:1;stroke:#ff0000;stroke-width:0.0999976;stroke-dasharray:none;stroke-opacity:1"
       d="m 0.05013513,200.08642 8.93746577,0.05 v -20.00886 l -8.93746577,0.0503"
       id="path2" />
    <path
       style="fill:none;fill-opacity:1;stroke:#ff0000;stroke-width:0.0999976;stroke-dasharray:none;stroke-opacity:1"
       d="m 0.05013513,240.00356 8.93746577,0.0499 V 220.0446 l -8.93746577,0.0503"
       id="path9-5-3-1-5-0-0-3-0-1" />
    <path
       id="path9-5-3-1-5-0-6"
       style="fill:none;fill-opacity:1;stroke:#ff0000;stroke-width:0.1;stroke-dasharray:none;stroke-opacity:1"
       d="m 49.854818,0.05006296 -0.0498,8.94993654 h 19.95019 l -0.0502,-8.94993654 m 19.949818,0 -0.0498,8.94993654 h 19.950194 l -0.025,-8.97493654"
       sodipodi:nodetypes="cccccccc" />
    <path
       id="path9-5-3-1-5-0-6-1"
       style="fill:none;fill-opacity:1;stroke:#ff0000;stroke-width:0.1;stroke-dasharray:none;stroke-opacity:1"
       d="m 129.45482,0.05006296 -0.0498,8.94993654 h 19.95019 l -0.0502,-8.94993654 m 19.94981,0 -0.0498,8.94993654 h 19.95019 l -0.0502,-8.94993654 m 19.94982,0 -0.0498,8.94993654 h 19.95019 l -0.025,-8.97493654"
       sodipodi:nodetypes="cccccccccccc" />
    <path
       id="path9-5-3-1-5-0-6-1-0"
       style="fill:none;fill-opacity:1;stroke:#ff0000;stroke-width:0.1;stroke-dasharray:none;stroke-opacity:1"
       d="m 248.85482,0.05006296 -0.0498,8.94993754 h 19.95019 l -0.0502,-8.94993754 m 19.94981,0 -0.0498,8.94993754 h 19.95019 l -0.0502,-8.94993754 m 19.94982,0 -0.0498,8.94993754 h 19.95019 l -0.025,-8.97493754"
       sodipodi:nodetypes="cccccccccccc" />
    <path
       id="path9-5-3-1-5-0-6-1-0-7"
       style="fill:none;fill-opacity:1;stroke:#ff0000;stroke-width:0.1;stroke-dasharray:none;stroke-opacity:1"
       d="m 368.25482,0.05006296 -0.0498,8.94993754 h 19.95019 l -0.0502,-8.94993754 m 19.94981,0 -0.0498,8.94993754 h 19.95019 l -0.0502,-8.94993754 m 19.94982,0 -0.0498,8.94993754 h 19.95019 l -0.025,-8.97493754"
       sodipodi:nodetypes="cccccccccccc" />
    <path
       id="path9-5-3-1-5-0-6-1-0-7-1"
       style="fill:none;fill-opacity:1;stroke:#ff0000;stroke-width:0.1;stroke-dasharray:none;stroke-opacity:1"
       d="m 487.65482,0.05006296 -0.0498,8.94993754 h 19.95019 l -0.0502,-8.94993754 m 19.94981,0 -0.0498,8.94993754 h 19.95008 l -0.0502,-8.94993754"
       sodipodi:nodetypes="cccccccc" />
    <path
       style="fill:none;fill-opacity:1;stroke:#ff0000;stroke-width:0.0999968;stroke-dasharray:none;stroke-opacity:1"
       d="m 599.97986,259.98729 -8.96272,-0.0245 v 20.00867 H 600"
       id="path8-5"
       sodipodi:nodetypes="cccc" />
    <path
       style="fill:none;fill-opacity:1;stroke:#ff0000;stroke-width:0.0999992;stroke-dasharray:none;stroke-opacity:1"
       d="m 591.01711,20.551513 -0.0239,-11.5513116 -20.94293,3.1e-5 0.0502,-8.94995196"
       id="path7-8"
       sodipodi:nodetypes="cccc" />
    <path
       style="fill:none;fill-opacity:1;stroke:#ff0000;stroke-width:0.0999968;stroke-dasharray:none;stroke-opacity:1"
       d="m 599.95486,40.418458 -8.93732,0.0499 v -20.00886"
       id="path6-6"
       sodipodi:nodetypes="ccc" />
    <path
       style="fill:none;fill-opacity:1;stroke:#ff0000;stroke-width:0.0999968;stroke-dasharray:none;stroke-opacity:1"
       d="m 599.95486,80.3356 -8.93732,0.0499 V 60.376648 l 8.93732,0.0503"
       id="path5-7" />
    <path
       style="fill:none;fill-opacity:1;stroke:#ff0000;stroke-width:0.0999968;stroke-dasharray:none;stroke-opacity:1"
       d="m 599.95486,120.25265 -8.93732,0.0499 v -20.00887 l 8.93732,0.0504"
       id="path4-7" />
    <path
       style="fill:none;fill-opacity:1;stroke:#ff0000;stroke-width:0.0999968;stroke-dasharray:none;stroke-opacity:1"
       d="m 599.95486,160.16959 -8.93732,0.05 v -20.00886 l 8.93732,0.0504"
       id="path3-2" />
    <path
       style="fill:none;fill-opacity:1;stroke:#ff0000;stroke-width:0.0999968;stroke-dasharray:none;stroke-opacity:1"
       d="m 599.95486,200.08664 -8.93732,0.05 v -20.00886 l 8.93732,0.0503"
       id="path2-2" />
    <path
       style="fill:none;fill-opacity:1;stroke:#ff0000;stroke-width:0.0999968;stroke-dasharray:none;stroke-opacity:1"
       d="m 599.95486,240.00378 -8.93732,0.0499 v -20.00886 l 8.93732,0.0503"
       id="path9-5-3-1-5-0-0-3-0-1-9" />
  </g>
</svg>
