<?xml version="1.0" encoding="UTF-8" standalone="no"?>
<!-- Created with Inkscape (http://www.inkscape.org/) -->

<svg
   width="600mm"
   height="300mm"
   viewBox="0 0 600 300"
   version="1.1"
   id="svg1"
   inkscape:version="1.4 (86a8ad7, 2024-10-11)"
   sodipodi:docname="back.svg"
   xmlns:inkscape="http://www.inkscape.org/namespaces/inkscape"
   xmlns:sodipodi="http://sodipodi.sourceforge.net/DTD/sodipodi-0.dtd"
   xmlns="http://www.w3.org/2000/svg"
   xmlns:svg="http://www.w3.org/2000/svg">
  <sodipodi:namedview
     id="namedview1"
     pagecolor="#505050"
     bordercolor="#eeeeee"
     borderopacity="1"
     inkscape:showpageshadow="0"
     inkscape:pageopacity="0"
     inkscape:pagecheckerboard="0"
     inkscape:deskcolor="#505050"
     inkscape:document-units="mm"
     inkscape:zoom="256"
     inkscape:cx="39.900391"
     inkscape:cy="38.056641"
     inkscape:window-width="2560"
     inkscape:window-height="1369"
     inkscape:window-x="-8"
     inkscape:window-y="-8"
     inkscape:window-maximized="1"
     inkscape:current-layer="layer1" />
  <defs
     id="defs1" />
  <g
     inkscape:label="Layer 1"
     inkscape:groupmode="layer"
     id="layer1">
    <path
       id="path9-5-3-1-5-0-0-3-0"
       style="fill:none;fill-opacity:1;stroke:#ff0000;stroke-width:0.1;stroke-dasharray:none;stroke-opacity:1"
       d="m 600.02307,39.96768 -9.95,-0.0499 v 20.00886 l 9.95,-0.0503 m 0,20.00848 -9.95,-0.05 v 20.008863 l 9.95,-0.0503 m 0,20.008487 -9.95,-0.05 v 20.00886 l 9.95,-0.0504 m 0,20.00848 -9.95,-0.0499 v 20.00887 l 9.95,-0.0504 m 0,20.00847 -9.95,-0.0499 v 20.00885 l 9.95,-0.0503 m 0,20.00849 -9.95,-0.0499 v 20.00886 l 9.95,-0.0503 m 0,20.00848 -9.95,-0.0499 -0.023,20.55124"
       sodipodi:nodetypes="ccccccccccccccccccccccccccc" />
    <path
       id="path9-5-3-1-5-0-0-3-0-1"
       style="fill:none;fill-opacity:1;stroke:#ff0000;stroke-width:0.1;stroke-dasharray:none;stroke-opacity:1"
       d="m 0.05013634,260.00385 9.94999966,0.0499 v -20.00886 l -9.94999966,0.0503 m 0,-20.00848 9.94999966,0.05 v -20.00886 l -9.94999966,0.0503 m 0,-20.00849 9.94999966,0.05 V 160.2108 l -9.94999966,0.0504 m 0,-20.00848 9.94999966,0.0499 v -20.00887 l -9.94999966,0.0504 m 0,-20.00847 9.94999966,0.0499 V 80.376726 l -9.94999966,0.0503 m 0,-20.00849 9.94999966,0.0499 v -20.00886 l -9.94999966,0.0503 m 0,-20.00848 9.94999966,0.0499 0.02393,-10.551264 19.93114,3.1e-5 -0.0502,-9.95000004 M 10.000536,299.97153 v -20.00867 l -9.97539966,0.0245"
       sodipodi:nodetypes="cccccccccccccccccccccccccccccccc" />
    <path
       id="path9-5-3-1-5-0-6"
       style="fill:none;fill-opacity:1;stroke:#ff0000;stroke-width:0.1;stroke-dasharray:none;stroke-opacity:1"
       d="m 49.854818,0.05006296 -0.0498,9.95000004 h 19.95019 l -0.0502,-9.95000004 m 19.949818,0 -0.0498,9.95000004 h 19.950194 l -0.025,-9.97500004"
       sodipodi:nodetypes="cccccccc" />
    <path
       id="path9-5-3-1-5-0-6-1"
       style="fill:none;fill-opacity:1;stroke:#ff0000;stroke-width:0.1;stroke-dasharray:none;stroke-opacity:1"
       d="m 129.45482,0.05006296 -0.0498,9.95000004 h 19.95019 l -0.0502,-9.95000004 m 19.94981,0 -0.0498,9.95000004 h 19.95019 l -0.0502,-9.95000004 m 19.94982,0 -0.0498,9.95000004 h 19.95019 l -0.025,-9.97500004"
       sodipodi:nodetypes="cccccccccccc" />
    <path
       id="path9-5-3-1-5-0-6-1-0"
       style="fill:none;fill-opacity:1;stroke:#ff0000;stroke-width:0.1;stroke-dasharray:none;stroke-opacity:1"
       d="m 248.85482,0.05006296 -0.0498,9.95000104 h 19.95019 l -0.0502,-9.95000104 m 19.94981,0 -0.0498,9.95000104 h 19.95019 l -0.0502,-9.95000104 m 19.94982,0 -0.0498,9.95000104 h 19.95019 l -0.025,-9.97500104"
       sodipodi:nodetypes="cccccccccccc" />
    <path
       id="path9-5-3-1-5-0-6-1-0-7"
       style="fill:none;fill-opacity:1;stroke:#ff0000;stroke-width:0.1;stroke-dasharray:none;stroke-opacity:1"
       d="m 368.25482,0.05006296 -0.0498,9.95000104 h 19.95019 l -0.0502,-9.95000104 m 19.94981,0 -0.0498,9.95000104 h 19.95019 l -0.0502,-9.95000104 m 19.94982,0 -0.0498,9.95000104 h 19.95019 l -0.025,-9.97500104"
       sodipodi:nodetypes="cccccccccccc" />
    <path
       id="path9-5-3-1-5-0-6-1-0-7-1"
       style="fill:none;fill-opacity:1;stroke:#ff0000;stroke-width:0.1;stroke-dasharray:none;stroke-opacity:1"
       d="m 487.65482,0.05006296 -0.0498,9.95000104 h 19.95019 l -0.0502,-9.95000104 m 19.94981,0 -0.0498,9.95000104 h 19.95008 l -0.0502,-9.95000104"
       sodipodi:nodetypes="cccccccc" />
    <path
       d="m 567.3549,0.03571488 -0.0498,9.95000102 22.76623,0.00214 0.001,10.020812 9.9754,-0.0245"
       style="fill:none;fill-opacity:1;stroke:#ff0000;stroke-width:0.1;stroke-dasharray:none;stroke-opacity:1"
       id="path1"
       sodipodi:nodetypes="ccccc" />
  </g>
</svg>
