<?xml version="1.0" encoding="UTF-8" standalone="no"?>
<!-- Created with Inkscape (http://www.inkscape.org/) -->

<svg
   width="600mm"
   height="300mm"
   viewBox="0 0 600 300"
   version="1.1"
   id="svg1"
   inkscape:version="1.4 (86a8ad7, 2024-10-11)"
   sodipodi:docname="back.svg"
   xmlns:inkscape="http://www.inkscape.org/namespaces/inkscape"
   xmlns:sodipodi="http://sodipodi.sourceforge.net/DTD/sodipodi-0.dtd"
   xmlns="http://www.w3.org/2000/svg"
   xmlns:svg="http://www.w3.org/2000/svg">
  <sodipodi:namedview
     id="namedview1"
     pagecolor="#ffffff"
     bordercolor="#eeeeee"
     borderopacity="1"
     inkscape:showpageshadow="0"
     inkscape:pageopacity="0"
     inkscape:pagecheckerboard="false"
     inkscape:deskcolor="#505050"
     inkscape:document-units="mm"
     inkscape:zoom="11.313708"
     inkscape:cx="25.676815"
     inkscape:cy="562.63603"
     inkscape:window-width="2560"
     inkscape:window-height="1369"
     inkscape:window-x="-8"
     inkscape:window-y="-8"
     inkscape:window-maximized="1"
     inkscape:current-layer="layer1"
     showborder="true" />
  <defs
     id="defs1" />
  <g
     inkscape:label="Layer 1"
     inkscape:groupmode="layer"
     id="layer1">
    <path
       id="path9-5-3-1-5-0-6"
       style="fill:none;fill-opacity:1;stroke:#ff0000;stroke-width:0.1;stroke-dasharray:none;stroke-opacity:1"
       d="m 49.854818,0.05006296 -0.0498,8.94993654 h 19.95019 l -0.0502,-8.94993654 m 19.949818,0 -0.0498,8.94993654 h 19.950194 l -0.025,-8.97493654"
       sodipodi:nodetypes="cccccccc" />
    <path
       id="path9-5-3-1-5-0-6-1"
       style="fill:none;fill-opacity:1;stroke:#ff0000;stroke-width:0.1;stroke-dasharray:none;stroke-opacity:1"
       d="m 129.45482,0.05006296 -0.0498,8.94993654 h 19.95019 l -0.0502,-8.94993654 m 19.94981,0 -0.0498,8.94993654 h 19.95019 l -0.0502,-8.94993654 m 19.94982,0 -0.0498,8.94993654 h 19.95019 l -0.025,-8.97493654"
       sodipodi:nodetypes="cccccccccccc" />
    <path
       id="path9-5-3-1-5-0-6-1-0"
       style="fill:none;fill-opacity:1;stroke:#ff0000;stroke-width:0.1;stroke-dasharray:none;stroke-opacity:1"
       d="m 248.85482,0.05006296 -0.0498,8.94993754 h 19.95019 l -0.0502,-8.94993754 m 19.94981,0 -0.0498,8.94993754 h 19.95019 l -0.0502,-8.94993754 m 19.94982,0 -0.0498,8.94993754 h 19.95019 l -0.025,-8.97493754"
       sodipodi:nodetypes="cccccccccccc" />
    <path
       id="path9-5-3-1-5-0-6-1-0-7"
       style="fill:none;fill-opacity:1;stroke:#ff0000;stroke-width:0.1;stroke-dasharray:none;stroke-opacity:1"
       d="m 368.25482,0.05006296 -0.0498,8.94993754 h 19.95019 l -0.0502,-8.94993754 m 19.94981,0 -0.0498,8.94993754 h 19.95019 l -0.0502,-8.94993754 m 19.94982,0 -0.0498,8.94993754 h 19.95019 l -0.025,-8.97493754"
       sodipodi:nodetypes="cccccccccccc" />
    <path
       id="path9-5-3-1-5-0-6-1-0-7-1"
       style="fill:none;fill-opacity:1;stroke:#ff0000;stroke-width:0.1;stroke-dasharray:none;stroke-opacity:1"
       d="m 487.65482,0.05006296 -0.0498,8.94993754 h 19.95019 l -0.0502,-8.94993754 m 19.94981,0 -0.0498,8.94993754 h 19.95008 l -0.0502,-8.94993754"
       sodipodi:nodetypes="cccccccc" />
    <path
       d="m 599.97596,288.93553 -8.94993,0.0499 m 8.94993,-40.0499 -8.94993,0.0499 v 19.9499 l 8.94993,0.0503 m 0,-60.0501 -8.94993,0.0499 v 19.9499 l 8.94993,0.0503 m 0,-60.0501 -8.94993,0.0499 v 19.94985 l 8.94993,0.0504 m 0,-60.0502 -8.94993,0.05 v 19.9498 l 8.94993,0.0504 m 0,-60.050184 -8.94993,0.05 V 108.9353 l 8.94993,0.0504 m 0,-60.050204 -8.94993,0.04995 v 19.94985 l 8.94993,0.05035 m 1.7e-4,-40.000405 -8.95013,-0.04954 V 8.9667021 l -20.96765,-0.01246 0.0233,-8.95411199262"
       style="fill:none;fill-opacity:1;stroke:#ff0000;stroke-width:0.1;stroke-dasharray:none;stroke-opacity:1"
       id="path1"
       sodipodi:nodetypes="ccccccccccccccccccccccccccccccc" />
    <path
       d="m 0.05,288.93553 8.94993,0.0499 M 0.05,248.93553 l 8.94993,0.0499 v 19.9499 L 0.05,268.98563 m 0,-60.0501 8.94993,0.0499 v 19.9499 L 0.05,228.98563 m 0,-60.0501 8.94993,0.0499 v 19.94985 L 0.05,188.98568 m 0,-60.0502 8.94993,0.05 v 19.9498 L 0.05,148.98568 m 0,-60.050183 8.94993,0.05 V 108.9353 L 0.05,108.9857 m 0,-60.050204 8.94993,0.04995 V 68.935297 L 0.05,68.985697 M 0.04983,28.985291 8.99996,28.935751 V 8.9667021 l 20.96765,-0.01246 -0.0233,-8.95411199262"
       style="fill:none;fill-opacity:1;stroke:#ff0000;stroke-width:0.1;stroke-dasharray:none;stroke-opacity:1"
       id="path1-1"
       sodipodi:nodetypes="ccccccccccccccccccccccccccccccc" />
  </g>
</svg>
