<?xml version="1.0" encoding="UTF-8" standalone="no"?>
<!-- Created with Inkscape (http://www.inkscape.org/) -->

<svg
   width="600mm"
   height="300mm"
   viewBox="0 0 600 300"
   version="1.1"
   id="svg1"
   inkscape:version="1.4 (86a8ad7, 2024-10-11)"
   sodipodi:docname="bottom.svg"
   xmlns:inkscape="http://www.inkscape.org/namespaces/inkscape"
   xmlns:sodipodi="http://sodipodi.sourceforge.net/DTD/sodipodi-0.dtd"
   xmlns="http://www.w3.org/2000/svg"
   xmlns:svg="http://www.w3.org/2000/svg">
  <sodipodi:namedview
     id="namedview1"
     pagecolor="#505050"
     bordercolor="#eeeeee"
     borderopacity="1"
     inkscape:showpageshadow="0"
     inkscape:pageopacity="0"
     inkscape:pagecheckerboard="0"
     inkscape:deskcolor="#505050"
     inkscape:document-units="mm"
     inkscape:zoom="0.52961209"
     inkscape:cx="1401.9695"
     inkscape:cy="771.31924"
     inkscape:window-width="2560"
     inkscape:window-height="1369"
     inkscape:window-x="-8"
     inkscape:window-y="-8"
     inkscape:window-maximized="1"
     inkscape:current-layer="layer1" />
  <defs
     id="defs1" />
  <g
     inkscape:label="Layer 1"
     inkscape:groupmode="layer"
     id="layer1">
    <path
       id="path9-5-3-1-5-0-0-3-0"
       style="fill:none;fill-opacity:1;stroke:#ff0000;stroke-width:0.100147;stroke-dasharray:none;stroke-opacity:1"
       d="m 600.02307,39.96768 -9.95,-0.0499 v 20.00886 l 9.95,-0.0503 m 0,20.00848 -9.95,-0.05 v 20.008863 l 9.95,-0.0503 m 0,20.008487 -9.95,-0.05 v 20.00886 l 9.95,-0.0504 m 0,20.00848 -9.95,-0.0499 v 20.00887 l 9.95,-0.0504 m 0,20.00847 -9.95,-0.0499 v 20.00885 l 9.95,-0.0503 m 0,20.00849 -9.95,-0.0499 v 20.00886 l 9.95,-0.0503 m 0,20.00848 -9.95,-0.0499 -0.023,20.55124 M 590.07267,0 v 20.00867 l 9.9754,-0.0245"
       sodipodi:nodetypes="cccccccccccccccccccccccccccccc" />
    <path
       id="path9-5-3-1-5-0-0-3-0-1"
       style="fill:none;fill-opacity:1;stroke:#ff0000;stroke-width:0.100147;stroke-dasharray:none;stroke-opacity:1"
       d="m 0.05013634,260.00385 9.94999966,0.0499 v -20.00886 l -9.94999966,0.0503 m 0,-20.00848 9.94999966,0.05 v -20.00886 l -9.94999966,0.0503 m 0,-20.00849 9.94999966,0.05 V 160.2108 l -9.94999966,0.0504 m 0,-20.00848 9.94999966,0.0499 v -20.00887 l -9.94999966,0.0504 m 0,-20.00847 9.94999966,0.0499 V 80.376726 l -9.94999966,0.0503 m 0,-20.00849 9.94999966,0.0499 v -20.00886 l -9.94999966,0.0503 m 0,-20.00848 9.94999966,0.0499 0.023,-20.551239960083 M 10.000536,299.97153 v -20.00867 l -9.97539966,0.0245"
       sodipodi:nodetypes="cccccccccccccccccccccccccccccc" />
    <path
       id="path9-5-3-1-5-0-6"
       style="fill:none;fill-opacity:1;stroke:#ff0000;stroke-width:0.1;stroke-dasharray:none;stroke-opacity:1"
       d="m 29.975062,0.05006293 -0.0498,9.95000007 h 19.95019 l -0.0502,-9.95000007 m 19.94981,0 -0.0498,9.95000007 h 19.95019 l -0.0502,-9.95000007 m 19.949818,0 -0.0498,9.95000007 h 19.95019 l -0.025,-9.97500007"
       sodipodi:nodetypes="cccccccccccc" />
    <path
       id="path9-5-3-1-5-0-6-1"
       style="fill:none;fill-opacity:1;stroke:#ff0000;stroke-width:0.1;stroke-dasharray:none;stroke-opacity:1"
       d="m 149.37506,0.05006293 -0.0498,9.95000007 h 19.95019 l -0.0502,-9.95000007 m 19.94981,0 -0.0498,9.95000007 h 19.95019 l -0.0502,-9.95000007 m 19.94982,0 -0.0498,9.95000007 h 19.95019 l -0.025,-9.97500007"
       sodipodi:nodetypes="cccccccccccc" />
    <path
       id="path9-5-3-1-5-0-6-1-0"
       style="fill:none;fill-opacity:1;stroke:#ff0000;stroke-width:0.1;stroke-dasharray:none;stroke-opacity:1"
       d="m 268.77506,0.05006293 -0.0498,9.95000107 h 19.95019 l -0.0502,-9.95000107 m 19.94981,0 -0.0498,9.95000107 h 19.95019 l -0.0502,-9.95000107 m 19.94982,0 -0.0498,9.95000107 h 19.95019 l -0.025,-9.97500107"
       sodipodi:nodetypes="cccccccccccc" />
    <path
       id="path9-5-3-1-5-0-6-1-0-7"
       style="fill:none;fill-opacity:1;stroke:#ff0000;stroke-width:0.1;stroke-dasharray:none;stroke-opacity:1"
       d="m 388.17506,0.05006293 -0.0498,9.95000107 h 19.95019 l -0.0502,-9.95000107 m 19.94981,0 -0.0498,9.95000107 h 19.95019 l -0.0502,-9.95000107 m 19.94982,0 -0.0498,9.95000107 h 19.95019 l -0.025,-9.97500107"
       sodipodi:nodetypes="cccccccccccc" />
    <path
       id="path9-5-3-1-5-0-6-1-0-7-1"
       style="fill:none;fill-opacity:1;stroke:#ff0000;stroke-width:0.1;stroke-dasharray:none;stroke-opacity:1"
       d="m 507.57506,0.05006293 -0.0498,9.95000107 h 19.95019 l -0.0502,-9.95000107 m 19.94981,0 -0.0498,9.95000107 h 19.95019 l -0.0502,-9.95000107"
       sodipodi:nodetypes="cccccccc" />
  </g>
</svg>
