<?xml version="1.0" encoding="UTF-8" standalone="no"?>
<!-- Created with Inkscape (http://www.inkscape.org/) -->

<svg
   width="600mm"
   height="300mm"
   viewBox="0 0 600 300"
   version="1.1"
   id="svg1"
   inkscape:version="1.4 (86a8ad7, 2024-10-11)"
   sodipodi:docname="side.svg"
   xmlns:inkscape="http://www.inkscape.org/namespaces/inkscape"
   xmlns:sodipodi="http://sodipodi.sourceforge.net/DTD/sodipodi-0.dtd"
   xmlns="http://www.w3.org/2000/svg"
   xmlns:svg="http://www.w3.org/2000/svg">
  <sodipodi:namedview
     id="namedview1"
     pagecolor="#ffffff"
     bordercolor="#eeeeee"
     borderopacity="1"
     inkscape:showpageshadow="0"
     inkscape:pageopacity="0"
     inkscape:pagecheckerboard="0"
     inkscape:deskcolor="#505050"
     inkscape:document-units="mm"
     inkscape:zoom="1.3838692"
     inkscape:cx="199.07951"
     inkscape:cy="1094.3953"
     inkscape:window-width="2560"
     inkscape:window-height="1369"
     inkscape:window-x="-8"
     inkscape:window-y="-8"
     inkscape:window-maximized="1"
     inkscape:current-layer="layer1" />
  <defs
     id="defs1" />
  <g
     inkscape:label="Layer 1"
     inkscape:groupmode="layer"
     id="layer1">
    <path
       id="path9-5-3-1-5-0-0-3-0"
       style="fill:none;fill-opacity:1;stroke:#ff0000;stroke-width:0.1;stroke-dasharray:none;stroke-opacity:1"
       d="m 212.15027,299.9843 96.31881,-290.9839755 -96.59214,0.012846 0.0557,-8.95899541 m -19.95019,0 0.0502,8.97249001 -19.94977,-4e-7 0.0498,-8.97249001 m -19.95019,0 0.0502,8.97249001 h -19.94981 l 0.0498,-8.97249001 m -19.9502,0 0.025,8.99749001 -19.92461,-0.025 0.0498,-8.97249001 M 11.780073,299.9793 l 0.023,-11.00425 8.949927,0.0499 v -20.0501 l -8.949927,0.0503 v -20.0501 l 8.949927,0.0499 v -20.0501 l -8.949927,0.0503 v -20.0501 l 8.949927,0.0499 V 188.9748 l -8.949927,0.0504 v -20.05015 l 8.949927,0.0499 V 148.9748 l -8.949927,0.0504 V 128.975 l 8.949927,0.05 v -20.05018 l -8.949927,0.0504 V 88.975025 l 8.949927,0.04995 v -20.05015 l -8.949927,0.05035 V 48.975025 L 20.753,49.024975 V 28.97523 L 11.8029,29.02477 11.799,9.006231 32.829,8.993769 32.805665,0.03965693 M 52.73268,0.05417469 52.68288,9 h 19.9498 l -0.0502,-8.94582531"
       sodipodi:nodetypes="cccccccccccccccccccccccccccccccccccccccccccccccccccc" />
  </g>
</svg>
