<?xml version="1.0" encoding="UTF-8" standalone="no"?>
<!-- Created with Inkscape (http://www.inkscape.org/) -->

<svg
   width="600mm"
   height="300mm"
   viewBox="0 0 600 300"
   version="1.1"
   id="svg1"
   inkscape:version="1.4 (86a8ad7, 2024-10-11)"
   sodipodi:docname="side.svg"
   xmlns:inkscape="http://www.inkscape.org/namespaces/inkscape"
   xmlns:sodipodi="http://sodipodi.sourceforge.net/DTD/sodipodi-0.dtd"
   xmlns="http://www.w3.org/2000/svg"
   xmlns:svg="http://www.w3.org/2000/svg">
  <sodipodi:namedview
     id="namedview1"
     pagecolor="#505050"
     bordercolor="#eeeeee"
     borderopacity="1"
     inkscape:showpageshadow="0"
     inkscape:pageopacity="0"
     inkscape:pagecheckerboard="0"
     inkscape:deskcolor="#505050"
     inkscape:document-units="mm"
     inkscape:zoom="0.70710678"
     inkscape:cx="697.20728"
     inkscape:cy="428.50671"
     inkscape:window-width="1278"
     inkscape:window-height="1360"
     inkscape:window-x="1273"
     inkscape:window-y="0"
     inkscape:window-maximized="0"
     inkscape:current-layer="layer1" />
  <defs
     id="defs1" />
  <g
     inkscape:label="Layer 1"
     inkscape:groupmode="layer"
     id="layer1">
    <path
       id="path9-5-3-1-5-0-0-3-0"
       style="fill:none;fill-opacity:1;stroke:#ff0000;stroke-width:0.1;stroke-dasharray:none;stroke-opacity:1"
       d="m 212.15027,299.9843 96.31881,-289.983588 -77.74383,-6.49e-4 0.0498,-9.95000007 M 11.802673,0.00780962 V 20.016478 l 9.950396,-0.04954 V 39.97561 l -9.949996,-0.04995 v 20.00886 l 9.949996,-0.05035 v 20.008476 l -9.949996,-0.04995 v 20.008861 l 9.949996,-0.05035 V 119.8097 l -9.949996,-0.05 v 20.00886 l 9.949996,-0.0504 v 20.00848 l -9.949996,-0.0499 v 20.00887 l 9.949996,-0.0504 v 20.00847 l -9.949996,-0.0499 v 20.00885 l 9.949996,-0.0503 v 20.00849 l -9.949996,-0.0499 v 20.00886 l 9.949996,-0.0503 v 20.00848 l -9.949996,-0.0499 -0.023,20.55124"
       sodipodi:nodetypes="cccccccccccccccccccccccccccccccccc" />
    <path
       id="path9-5-3-1-5-0-6"
       style="fill:none;fill-opacity:1;stroke:#ff0000;stroke-width:0.1;stroke-dasharray:none;stroke-opacity:1"
       d="m 31.775063,0.05006293 -0.0498,9.95000007 h 19.95019 l -0.0502,-9.95000007 m 19.94981,0 -0.0498,9.95000007 h 19.95019 l -0.0502,-9.95000007 m 19.949807,0 -0.0498,9.95000007 h 19.9502 l -0.025,-9.97500007"
       sodipodi:nodetypes="cccccccccccc" />
    <path
       id="path9-5-3-1-5-0-6-2"
       style="fill:none;fill-opacity:1;stroke:#ff0000;stroke-width:0.1;stroke-dasharray:none;stroke-opacity:1"
       d="m 151.17506,0.05006293 -0.0498,9.95000007 h 19.95019 l -0.0502,-9.95000007 m 19.94981,0 -0.0498,9.95000007 h 19.95019 l -0.0502,-9.95000007"
       sodipodi:nodetypes="cccccccc" />
  </g>
</svg>
