<?xml version="1.0" encoding="UTF-8" standalone="no"?>
<!-- Created with Inkscape (http://www.inkscape.org/) -->

<svg
   width="600mm"
   height="300mm"
   viewBox="0 0 600 300"
   version="1.1"
   id="svg1"
   inkscape:version="1.4 (86a8ad7, 2024-10-11)"
   sodipodi:docname="side.svg"
   xmlns:inkscape="http://www.inkscape.org/namespaces/inkscape"
   xmlns:sodipodi="http://sodipodi.sourceforge.net/DTD/sodipodi-0.dtd"
   xmlns="http://www.w3.org/2000/svg"
   xmlns:svg="http://www.w3.org/2000/svg">
  <sodipodi:namedview
     id="namedview1"
     pagecolor="#ffffff"
     bordercolor="#eeeeee"
     borderopacity="1"
     inkscape:showpageshadow="0"
     inkscape:pageopacity="0"
     inkscape:pagecheckerboard="0"
     inkscape:deskcolor="#505050"
     inkscape:document-units="mm"
     inkscape:zoom="2.7677384"
     inkscape:cx="2132.9689"
     inkscape:cy="907.41957"
     inkscape:window-width="2560"
     inkscape:window-height="1369"
     inkscape:window-x="-8"
     inkscape:window-y="-8"
     inkscape:window-maximized="1"
     inkscape:current-layer="layer1" />
  <defs
     id="defs1" />
  <g
     inkscape:label="Layer 1"
     inkscape:groupmode="layer"
     id="layer1">
    <path
       id="path9-5-3-1-5-0-0-3-0"
       style="fill:none;fill-opacity:1;stroke:#ff0000;stroke-width:0.1;stroke-dasharray:none;stroke-opacity:1"
       d="m 212.15027,299.9843 96.31881,-290.9839755 -96.59214,0.012846 0.0557,-8.95899541 m -19.95019,0 0.0502,8.97249001 -19.94977,-4e-7 0.0498,-8.97249001 m -19.95019,0 0.0502,8.97249001 h -19.94981 l 0.0498,-8.97249001 m -19.9502,0 0.025,8.99749001 -19.92461,-0.025 0.0498,-8.97249001 M 11.780073,299.9793 l 0.023,-11.00425 8.949927,0.0499 v -20.0501 l -8.95,0.0503 v -20.0501 l 8.95,0.0499 v -20.0501 l -8.949927,0.0503 v -20.0501 l 8.949927,0.0499 V 188.9748 l -8.949927,0.0504 v -20.05015 l 8.949927,0.0499 V 148.9748 l -8.949927,0.0504 V 128.975 l 8.949927,0.05 v -20.05018 l -8.949927,0.0504 V 88.975025 l 8.949927,0.04995 v -20.05015 l -8.949927,0.05035 V 48.975025 L 20.753,49.024975 V 28.97523 L 11.8029,29.02477 11.799,9.006231 32.829,8.993769 32.805665,0.03965693 M 52.73268,0.05417469 52.68288,9 h 19.9498 l -0.0502,-8.94582531"
       sodipodi:nodetypes="cccccccccccccccccccccccccccccccccccccccccccccccccccc" />
    <ellipse
       style="fill:none;stroke:#ff0000;stroke-width:0.180434;stroke-opacity:1"
       id="path3"
       ry="3.4097831"
       rx="3.4097829"
       cy="264.64716"
       cx="79.303001" />
    <ellipse
       style="fill:none;stroke:#ff0000;stroke-width:0.180434;stroke-opacity:1"
       id="path3-9"
       cx="108.97"
       cy="264.64746"
       rx="3.4097829"
       ry="3.4097831" />
    <ellipse
       style="fill:none;stroke:#ff0000;stroke-width:0.180434;stroke-opacity:1"
       id="path3-9-0"
       cx="138.61192"
       cy="264.63766"
       rx="3.4097829"
       ry="3.4097831" />
    <ellipse
       style="fill:none;stroke:#ff0000;stroke-width:0.180434;stroke-opacity:1"
       id="path3-9-2"
       cx="168.26088"
       cy="264.6358"
       rx="3.4097829"
       ry="3.4097831" />
    <path
       id="path9-5-3-1-5-0-0-3-0-0"
       style="fill:none;fill-opacity:1;stroke:#ff0000;stroke-width:0.1;stroke-dasharray:none;stroke-opacity:1"
       d="M 319.75303,0.01571213 223.43422,290.99968 l 96.59214,-0.0129 -0.0557,8.95899 m 19.95019,0 -0.0502,-8.97249 19.94977,1e-5 -0.0498,8.97249 m 19.95019,0 -0.0502,-8.97249 h 19.94981 l -0.0498,8.97249 m 19.9502,0 -0.025,-8.99749 19.92461,0.025 -0.0498,8.97249 m 80.7526,-299.92506787 -0.023,11.00425087 -8.94993,-0.0499 v 20.0501 l 8.95,-0.0503 v 20.0501 l -8.95,-0.0499 v 20.0501 l 8.94993,-0.0503 V 91.02496 l -8.94993,-0.0499 v 20.05014 l 8.94993,-0.0504 v 20.05015 l -8.94993,-0.0499 v 20.05015 l 8.94993,-0.0504 v 20.0502 l -8.94993,-0.05 v 20.05018 l 8.94993,-0.0504 v 20.05019 l -8.94993,-0.0499 v 20.05014 l 8.94993,-0.0503 v 20.05014 l -8.94993,-0.0499 v 20.04974 l 8.9501,-0.0495 0.004,20.01854 -21.03,0.0125 0.0233,8.95411 m -19.92702,-0.0145 0.0498,-8.94583 h -19.9498 l 0.0502,8.94583"
       sodipodi:nodetypes="cccccccccccccccccccccccccccccccccccccccccccccccccccc" />
    <ellipse
       style="fill:none;stroke:#ff0000;stroke-width:0.180434;stroke-opacity:1"
       id="path3-90"
       ry="3.4097831"
       rx="3.4097829"
       cy="-35.35284"
       cx="-452.59995"
       transform="scale(-1)" />
    <ellipse
       style="fill:none;stroke:#ff0000;stroke-width:0.180434;stroke-opacity:1"
       id="path3-9-06"
       cx="-422.93295"
       cy="-35.352535"
       rx="3.4097829"
       ry="3.4097831"
       transform="scale(-1)" />
    <ellipse
       style="fill:none;stroke:#ff0000;stroke-width:0.180434;stroke-opacity:1"
       id="path3-9-0-1"
       cx="-393.29102"
       cy="-35.362331"
       rx="3.4097829"
       ry="3.4097831"
       transform="scale(-1)" />
    <ellipse
       style="fill:none;stroke:#ff0000;stroke-width:0.180434;stroke-opacity:1"
       id="path3-9-2-3"
       cx="-363.64206"
       cy="-35.364193"
       rx="3.4097829"
       ry="3.4097831"
       transform="scale(-1)" />
    <path
       style="fill:none;stroke:#ff0000;stroke-width:0.1;stroke-dasharray:none;stroke-opacity:1"
       d="m 570,0 v 30 h 30"
       id="path4"
       sodipodi:nodetypes="ccc" />
    <path
       style="fill:none;stroke:#ff0000;stroke-width:0.1;stroke-dasharray:none;stroke-opacity:1"
       d="m 570.05,30 v 30 h 30"
       id="path4-9"
       sodipodi:nodetypes="ccc" />
    <path
       style="fill:none;stroke:#ff0000;stroke-width:0.1;stroke-dasharray:none;stroke-opacity:1"
       d="m 570.05,60 v 30 h 30"
       id="path4-98"
       sodipodi:nodetypes="ccc" />
    <path
       style="fill:none;stroke:#ff0000;stroke-width:0.1;stroke-dasharray:none;stroke-opacity:1"
       d="m 570.05,90 v 30 h 30"
       id="path4-98-6"
       sodipodi:nodetypes="ccc" />
    <path
       style="fill:none;stroke:#ff0000;stroke-width:0.1;stroke-dasharray:none;stroke-opacity:1"
       d="m 57.05,120 v 30 h 30"
       id="path4-98-5"
       sodipodi:nodetypes="ccc" />
    <path
       style="fill:none;stroke:#ff0000;stroke-width:0.1;stroke-dasharray:none;stroke-opacity:1"
       d="m 570.05,150 v 30 h 30"
       id="path4-98-9"
       sodipodi:nodetypes="ccc" />
    <path
       style="fill:none;stroke:#ff0000;stroke-width:0.1;stroke-dasharray:none;stroke-opacity:1"
       d="m 570.05,120 v 30.00001 h 30"
       id="path4-98-2"
       sodipodi:nodetypes="ccc" />
    <path
       style="fill:none;stroke:#ff0000;stroke-width:0.1;stroke-dasharray:none;stroke-opacity:1"
       d="m 570.05,180 v 30 h 30"
       id="path4-98-65"
       sodipodi:nodetypes="ccc" />
    <path
       style="fill:none;stroke:#ff0000;stroke-width:0.1;stroke-dasharray:none;stroke-opacity:1"
       d="m 540.05,0 v 30.000003 h 30"
       id="path4-1"
       sodipodi:nodetypes="ccc" />
    <path
       style="fill:none;stroke:#ff0000;stroke-width:0.1;stroke-dasharray:none;stroke-opacity:1"
       d="m 540.1,30.000003 v 30 h 30"
       id="path4-9-2"
       sodipodi:nodetypes="ccc" />
    <path
       style="fill:none;stroke:#ff0000;stroke-width:0.1;stroke-dasharray:none;stroke-opacity:1"
       d="m 540.1,60.000003 v 30 h 30"
       id="path4-98-0"
       sodipodi:nodetypes="ccc" />
    <path
       style="fill:none;stroke:#ff0000;stroke-width:0.1;stroke-dasharray:none;stroke-opacity:1"
       d="M 540.1,90.000003 V 120 h 30"
       id="path4-98-6-0"
       sodipodi:nodetypes="ccc" />
    <path
       style="fill:none;stroke:#ff0000;stroke-width:0.1;stroke-dasharray:none;stroke-opacity:1"
       d="m 540.1,150 v 30 h 30"
       id="path4-98-9-1"
       sodipodi:nodetypes="ccc" />
    <path
       style="fill:none;stroke:#ff0000;stroke-width:0.1;stroke-dasharray:none;stroke-opacity:1"
       d="m 540.1,120 v 30.00001 h 30"
       id="path4-98-2-4"
       sodipodi:nodetypes="ccc" />
    <path
       style="fill:none;stroke:#ff0000;stroke-width:0.1;stroke-dasharray:none;stroke-opacity:1"
       d="m 540.1,180 v 30 h 30"
       id="path4-98-65-6"
       sodipodi:nodetypes="ccc" />
    <path
       style="fill:none;stroke:#ff0000;stroke-width:0.1;stroke-dasharray:none;stroke-opacity:1"
       d="m 570,210 v 30 h 30"
       id="path4-98-65-64"
       sodipodi:nodetypes="ccc" />
    <path
       style="fill:none;stroke:#ff0000;stroke-width:0.1;stroke-dasharray:none;stroke-opacity:1"
       d="m 540.05,210 v 30 h 30"
       id="path4-98-65-6-0"
       sodipodi:nodetypes="ccc" />
    <path
       style="fill:none;stroke:#ff0000;stroke-width:0.1;stroke-dasharray:none;stroke-opacity:1"
       d="m 600.05,295.05 h -30 v 5"
       id="path5"
       sodipodi:nodetypes="ccc" />
    <path
       style="fill:none;stroke:#ff0000;stroke-width:0.1;stroke-dasharray:none;stroke-opacity:1"
       d="m 570.05,295.05 h -30 v 5"
       id="path5-7"
       sodipodi:nodetypes="ccc" />
    <path
       style="fill:none;stroke:#ff0000;stroke-width:0.1;stroke-dasharray:none;stroke-opacity:1"
       d="m 600.05,290.05 h -30 v 5"
       id="path5-3"
       sodipodi:nodetypes="ccc" />
    <path
       style="fill:none;stroke:#ff0000;stroke-width:0.1;stroke-dasharray:none;stroke-opacity:1"
       d="m 570.05,290.05 h -30 v 5"
       id="path5-7-3"
       sodipodi:nodetypes="ccc" />
    <path
       style="fill:none;stroke:#ff0000;stroke-width:0.1;stroke-dasharray:none;stroke-opacity:1"
       d="m 600.05,285.05 h -30 v 5"
       id="path5-6"
       sodipodi:nodetypes="ccc" />
    <path
       style="fill:none;stroke:#ff0000;stroke-width:0.1;stroke-dasharray:none;stroke-opacity:1"
       d="m 570.05,285.05 h -30 v 5"
       id="path5-7-0"
       sodipodi:nodetypes="ccc" />
    <path
       style="fill:none;stroke:#ff0000;stroke-width:0.1;stroke-dasharray:none;stroke-opacity:1"
       d="m 600.05,280.05 h -30 v 5"
       id="path5-3-3"
       sodipodi:nodetypes="ccc" />
    <path
       style="fill:none;stroke:#ff0000;stroke-width:0.1;stroke-dasharray:none;stroke-opacity:1"
       d="m 570.05,280.05 h -30 v 5"
       id="path5-7-3-8"
       sodipodi:nodetypes="ccc" />
    <path
       style="fill:none;stroke:#ff0000;stroke-width:0.1;stroke-dasharray:none;stroke-opacity:1"
       d="m 600.05,275.05 h -30 v 5"
       id="path5-5"
       sodipodi:nodetypes="ccc" />
    <path
       style="fill:none;stroke:#ff0000;stroke-width:0.1;stroke-dasharray:none;stroke-opacity:1"
       d="m 570.05,275.05 h -30 v 5"
       id="path5-7-09"
       sodipodi:nodetypes="ccc" />
    <path
       style="fill:none;stroke:#ff0000;stroke-width:0.1;stroke-dasharray:none;stroke-opacity:1"
       d="m 600.05,270.05 h -30 v 5"
       id="path5-3-4"
       sodipodi:nodetypes="ccc" />
    <path
       style="fill:none;stroke:#ff0000;stroke-width:0.1;stroke-dasharray:none;stroke-opacity:1"
       d="m 570.05,270.05 h -30 v 5"
       id="path5-7-3-7"
       sodipodi:nodetypes="ccc" />
    <path
       style="fill:none;stroke:#ff0000;stroke-width:0.1;stroke-dasharray:none;stroke-opacity:1"
       d="m 600.05,265.05 h -30 v 5"
       id="path5-6-8"
       sodipodi:nodetypes="ccc" />
    <path
       style="fill:none;stroke:#ff0000;stroke-width:0.1;stroke-dasharray:none;stroke-opacity:1"
       d="m 570.05,265.05 h -30 v 5"
       id="path5-7-0-3"
       sodipodi:nodetypes="ccc" />
    <path
       style="fill:none;stroke:#ff0000;stroke-width:0.1;stroke-dasharray:none;stroke-opacity:1"
       d="m 600.05,260.05 h -30 v 5"
       id="path5-3-3-5"
       sodipodi:nodetypes="ccc" />
    <path
       style="fill:none;stroke:#ff0000;stroke-width:0.1;stroke-dasharray:none;stroke-opacity:1"
       d="m 570.05,260.05 h -30 v 5"
       id="path5-7-3-8-1"
       sodipodi:nodetypes="ccc" />
    <path
       style="fill:none;stroke:#ff0000;stroke-width:0.1;stroke-dasharray:none;stroke-opacity:1"
       d="m 600.05,255.05 h -30 v 5"
       id="path5-6-8-9"
       sodipodi:nodetypes="ccc" />
    <path
       style="fill:none;stroke:#ff0000;stroke-width:0.1;stroke-dasharray:none;stroke-opacity:1"
       d="m 570.05,255.05 h -30 v 5"
       id="path5-7-0-3-8"
       sodipodi:nodetypes="ccc" />
    <path
       style="fill:none;stroke:#ff0000;stroke-width:0.1;stroke-dasharray:none;stroke-opacity:1"
       d="m 600.05,250.05 h -30 v 5"
       id="path5-3-3-5-4"
       sodipodi:nodetypes="ccc" />
    <path
       style="fill:none;stroke:#ff0000;stroke-width:0.1;stroke-dasharray:none;stroke-opacity:1"
       d="m 570.05,250.05 h -30 v 5"
       id="path5-7-3-8-1-1"
       sodipodi:nodetypes="ccc" />
    <path
       style="fill:none;stroke:#ff0000;stroke-width:0.1;stroke-dasharray:none;stroke-opacity:1"
       d="m 600.05,245.05 h -30 v 5"
       id="path5-3-3-5-4-8"
       sodipodi:nodetypes="ccc" />
    <path
       style="fill:none;stroke:#ff0000;stroke-width:0.1;stroke-dasharray:none;stroke-opacity:1"
       d="m 570.05,245.05 h -30 v 5"
       id="path5-7-3-8-1-1-8"
       sodipodi:nodetypes="ccc" />
    <path
       style="fill:none;stroke:#ff0000;stroke-width:0.1;stroke-dasharray:none;stroke-opacity:1"
       d="m 600.05,240.05 h -30 v 5"
       id="path5-3-3-5-4-8-7"
       sodipodi:nodetypes="ccc" />
    <path
       style="fill:none;stroke:#ff0000;stroke-width:0.1;stroke-dasharray:none;stroke-opacity:1"
       d="m 570.05,240.05 h -30 v 5"
       id="path5-7-3-8-1-1-8-8"
       sodipodi:nodetypes="ccc" />
  </g>
</svg>
