<?xml version="1.0" encoding="UTF-8" standalone="no"?>
<!-- Created with Inkscape (http://www.inkscape.org/) -->

<svg
   width="600mm"
   height="300mm"
   viewBox="0 0 600 300"
   version="1.1"
   id="svg1"
   inkscape:version="1.4 (86a8ad7, 2024-10-11)"
   sodipodi:docname="side.svg"
   xmlns:inkscape="http://www.inkscape.org/namespaces/inkscape"
   xmlns:sodipodi="http://sodipodi.sourceforge.net/DTD/sodipodi-0.dtd"
   xmlns="http://www.w3.org/2000/svg"
   xmlns:svg="http://www.w3.org/2000/svg">
  <sodipodi:namedview
     id="namedview1"
     pagecolor="#505050"
     bordercolor="#eeeeee"
     borderopacity="1"
     inkscape:showpageshadow="0"
     inkscape:pageopacity="0"
     inkscape:pagecheckerboard="0"
     inkscape:deskcolor="#505050"
     inkscape:document-units="mm"
     inkscape:zoom="2"
     inkscape:cx="595"
     inkscape:cy="55.25"
     inkscape:window-width="2560"
     inkscape:window-height="1369"
     inkscape:window-x="-8"
     inkscape:window-y="-8"
     inkscape:window-maximized="1"
     inkscape:current-layer="layer1" />
  <defs
     id="defs1" />
  <g
     inkscape:label="Layer 1"
     inkscape:groupmode="layer"
     id="layer1">
    <path
       id="path9-5-3-1-5-0-0-3-0"
       style="fill:none;fill-opacity:1;stroke:#ff0000;stroke-width:0.1;stroke-dasharray:none;stroke-opacity:1"
       d="M 212.15027,299.9843 308.46908,9.0003245 210.8951,8.9996755 210.9449,0.05006293 M 11.780073,299.9793 l 0.023,-20.55124 8.949927,0.0499 v -20.00848 l -8.949927,0.0503 v -20.00886 l 8.949927,0.0499 v -20.00849 l -8.949927,0.0503 v -20.00885 l 8.949927,0.0499 v -20.00847 l -8.949927,0.0504 v -20.00887 l 8.949927,0.0499 v -20.00848 l -8.949927,0.0504 V 119.7597 l 8.949927,0.05 V 99.801207 l -8.949927,0.05035 V 79.842696 L 20.753,79.892646 V 59.88417 l -8.949927,0.05035 V 39.92566 L 20.753,39.97561 V 19.966938 l -8.950327,0.04954 -0.0038,-11.0289398 19.945948,-0.012462 -0.0502,-8.94993702"
       sodipodi:nodetypes="cccccccccccccccccccccccccccccccccccc" />
    <path
       id="path9-5-3-1-5-0-6"
       style="fill:none;fill-opacity:1;stroke:#ff0000;stroke-width:0.1;stroke-dasharray:none;stroke-opacity:1"
       d="m 51.644445,0.02513928 -0.0498,8.94993702 h 19.95019 l -0.0502,-8.94993702 m 19.949807,0 -0.0498,8.94993702 h 19.950198 l -0.025,-8.97493702454"
       sodipodi:nodetypes="cccccccc" />
    <path
       id="path9-5-3-1-5-0-6-2"
       style="fill:none;fill-opacity:1;stroke:#ff0000;stroke-width:0.1;stroke-dasharray:none;stroke-opacity:1"
       d="m 131.24444,0.02513928 -0.0498,8.94993702 h 19.95019 l -0.0502,-8.94993702 m 19.94981,0 -0.0498,8.94993702 h 19.95046 l -0.0502,-8.94993702"
       sodipodi:nodetypes="cccccccc" />
  </g>
</svg>
