<?xml version="1.0" encoding="UTF-8" standalone="no"?>
<!-- Created with Inkscape (http://www.inkscape.org/) -->

<svg
   width="600mm"
   height="300mm"
   viewBox="0 0 600 300"
   version="1.1"
   id="svg1"
   inkscape:version="1.4 (86a8ad7, 2024-10-11)"
   sodipodi:docname="top.svg"
   xmlns:inkscape="http://www.inkscape.org/namespaces/inkscape"
   xmlns:sodipodi="http://sodipodi.sourceforge.net/DTD/sodipodi-0.dtd"
   xmlns="http://www.w3.org/2000/svg"
   xmlns:svg="http://www.w3.org/2000/svg">
  <sodipodi:namedview
     id="namedview1"
     pagecolor="#505050"
     bordercolor="#eeeeee"
     borderopacity="1"
     inkscape:showpageshadow="0"
     inkscape:pageopacity="0"
     inkscape:pagecheckerboard="0"
     inkscape:deskcolor="#505050"
     inkscape:document-units="mm"
     inkscape:zoom="0.26480605"
     inkscape:cx="303.99608"
     inkscape:cy="679.74278"
     inkscape:window-width="1278"
     inkscape:window-height="1360"
     inkscape:window-x="-7"
     inkscape:window-y="0"
     inkscape:window-maximized="0"
     inkscape:current-layer="layer1" />
  <defs
     id="defs1" />
  <g
     inkscape:label="Layer 1"
     inkscape:groupmode="layer"
     id="layer1">
    <path
       id="path9-5-3-1-5-0-6"
       style="fill:none;fill-opacity:1;stroke:#ff0000;stroke-width:2;stroke-dasharray:none;stroke-opacity:1"
       d="m 29.975062,0.05006293 -0.0498,9.95000007 h 19.95019 l -0.0502,-9.95000007 m 19.94981,0 -0.0498,9.95000007 h 19.95019 l -0.0502,-9.95000007 m 19.949818,0 -0.0498,9.95000007 h 19.95019 l -0.025,-9.97500007"
       sodipodi:nodetypes="cccccccccccc" />
    <path
       id="path9-5-3-1-5-0-6-1"
       style="fill:none;fill-opacity:1;stroke:#ff0000;stroke-width:2;stroke-dasharray:none;stroke-opacity:1"
       d="m 149.37506,0.05006293 -0.0498,9.95000007 h 19.95019 l -0.0502,-9.95000007 m 19.94981,0 -0.0498,9.95000007 h 19.95019 l -0.0502,-9.95000007 m 19.94982,0 -0.0498,9.95000007 h 19.95019 l -0.025,-9.97500007"
       sodipodi:nodetypes="cccccccccccc" />
    <path
       id="path9-5-3-1-5-0-6-1-0"
       style="fill:none;fill-opacity:1;stroke:#ff0000;stroke-width:2;stroke-dasharray:none;stroke-opacity:1"
       d="m 268.77506,0.05006293 -0.0498,9.95000107 h 19.95019 l -0.0502,-9.95000107 m 19.94981,0 -0.0498,9.95000107 h 19.95019 l -0.0502,-9.95000107 m 19.94982,0 -0.0498,9.95000107 h 19.95019 l -0.025,-9.97500107"
       sodipodi:nodetypes="cccccccccccc" />
    <path
       id="path9-5-3-1-5-0-6-1-0-7"
       style="fill:none;fill-opacity:1;stroke:#ff0000;stroke-width:2;stroke-dasharray:none;stroke-opacity:1"
       d="m 388.17506,0.05006293 -0.0498,9.95000107 h 19.95019 l -0.0502,-9.95000107 m 19.94981,0 -0.0498,9.95000107 h 19.95019 l -0.0502,-9.95000107 m 19.94982,0 -0.0498,9.95000107 h 19.95019 l -0.025,-9.97500107"
       sodipodi:nodetypes="cccccccccccc" />
    <path
       id="path9-5-3-1-5-0-6-1-0-7-1"
       style="fill:none;fill-opacity:1;stroke:#ff0000;stroke-width:2;stroke-dasharray:none;stroke-opacity:1"
       d="m 507.57506,0.05006293 -0.0498,9.95000107 h 19.95019 l -0.0502,-9.95000107 m 19.94981,0 -0.0498,9.95000107 h 19.95019 l -0.0502,-9.95000107"
       sodipodi:nodetypes="cccccccc" />
    <path
       id="path9-5-3-1-5-0-6-2-6"
       style="fill:none;fill-opacity:1;stroke:#ff0000;stroke-width:2;stroke-dasharray:none;stroke-opacity:1"
       d="m 599.95,80.705446 -9.95,0.0498 v -19.95019 l 9.95,0.0502 m 0,-19.949808 -9.95,0.0498 v -19.95019 l 9.95,0.0502 m 0,179.050192 -9.95,0.0498 v -19.95019 l 9.95,0.0502 m 0,-19.94981 -9.95,0.0498 v -19.95019 l 9.95,0.0502 m 0,-19.94981 -9.95,0.0498 v -19.9502 l 9.975,0.025" />
    <path
       id="path9-5-3-1-5-0-6-2-6-0"
       style="fill:none;fill-opacity:1;stroke:#ff0000;stroke-width:2;stroke-dasharray:none;stroke-opacity:1"
       d="m 0.02750626,80.705443 9.95000004,0.0498 v -19.95019 l -9.95000004,0.0502 m 0,-19.949805 9.95000004,0.0498 v -19.95019 l -9.95000004,0.0502 m 0,179.050192 9.95000004,0.0498 v -19.95019 l -9.95000004,0.0502 m 0,-19.94981 9.95000004,0.0498 v -19.95019 l -9.95000004,0.0502 m 0,-19.94981 9.95000004,0.0498 v -19.9502 l -9.97500004,0.025" />
  </g>
</svg>
